<svg width="43" height="43" viewBox="0 0 43 43" fill="none" xmlns="http://www.w3.org/2000/svg">
<path d="M29.3525 14.8232H27.3831C26.9548 14.8232 26.5474 15.029 26.2955 15.3817L19.6943 24.536L16.7045 20.3872C16.4525 20.0387 16.0494 19.8287 15.6169 19.8287H13.6474C13.3745 19.8287 13.2149 20.1395 13.3745 20.362L18.6067 27.6183C18.7303 27.7908 18.8933 27.9314 19.082 28.0283C19.2708 28.1253 19.48 28.1759 19.6922 28.1759C19.9044 28.1759 20.1136 28.1253 20.3024 28.0283C20.4912 27.9314 20.6541 27.7908 20.7777 27.6183L29.6213 15.3565C29.785 15.134 29.6255 14.8232 29.3525 14.8232Z" fill="#37523B"/>
<path d="M21.5 2.6875C11.1111 2.6875 2.6875 11.1111 2.6875 21.5C2.6875 31.8889 11.1111 40.3125 21.5 40.3125C31.8889 40.3125 40.3125 31.8889 40.3125 21.5C40.3125 11.1111 31.8889 2.6875 21.5 2.6875ZM21.5 37.1211C12.8748 37.1211 5.87891 30.1252 5.87891 21.5C5.87891 12.8748 12.8748 5.87891 21.5 5.87891C30.1252 5.87891 37.1211 12.8748 37.1211 21.5C37.1211 30.1252 30.1252 37.1211 21.5 37.1211Z" fill="#37523B"/>
</svg>
