<svg width="24" height="24" viewBox="0 0 24 24" fill="none" xmlns="http://www.w3.org/2000/svg">
<g clip-path="url(#clip0_669_9893)">
<path fill-rule="evenodd" clip-rule="evenodd" d="M9.95847 0.469238C9.95847 0.193096 9.73554 -0.0307617 9.46054 -0.0307617C9.18555 -0.0307617 8.96262 0.193096 8.96262 0.469238V1.46924C8.96262 1.74538 9.18555 1.96924 9.46054 1.96924C9.73554 1.96924 9.95847 1.74538 9.95847 1.46924V0.469238ZM2.8417 2.11568C2.64725 1.92042 2.33198 1.92042 2.13753 2.11568C1.94308 2.31095 1.94308 2.62753 2.13753 2.82279L3.13338 3.82279C3.32783 4.01805 3.6431 4.01805 3.83755 3.82279C4.032 3.62753 4.032 3.31095 3.83755 3.11568L2.8417 2.11568ZM16.7836 2.11568C16.978 2.31095 16.978 2.62753 16.7836 2.82279L15.7877 3.82279C15.5933 4.01805 15.278 4.01805 15.0835 3.82279C14.8891 3.62753 14.8891 3.31095 15.0835 3.11568L16.0794 2.11568C16.2738 1.92042 16.5891 1.92042 16.7836 2.11568ZM0.497923 8.96924C0.222928 8.96924 0 9.1931 0 9.46924C0 9.74538 0.222928 9.96924 0.497923 9.96924H1.49377C1.76877 9.96924 1.99169 9.74538 1.99169 9.46924C1.99169 9.1931 1.76877 8.96924 1.49377 8.96924H0.497923ZM9.7341 9.53961C10.847 8.58168 12.2524 7.96924 13.5436 7.96924C15.9129 7.96924 17.9933 9.34487 18.9435 11.444C21.2783 11.3943 22.9329 13.7229 22.3238 15.9197C22.7271 16.2026 23.142 16.5128 23.4468 16.9846C23.8195 17.5616 24 18.3223 24 19.4692C24 21.9454 21.9846 23.9692 19.5187 23.9692H8.56438C5.48824 23.9692 3.08722 21.3324 3.08722 18.4692C3.08722 15.7569 5.06204 13.4287 7.62985 13.0184C7.89069 11.6288 8.71328 10.4183 9.7341 9.53961ZM21.6467 16.6652C21.5037 16.647 21.3743 16.5671 21.2939 16.4445C21.2017 16.3042 21.186 16.1268 21.2519 15.9723C22.0063 14.2047 20.5696 12.2184 18.6868 12.465C18.4583 12.495 18.2392 12.3635 18.1571 12.1472C17.4338 10.2406 15.6269 8.96924 13.5436 8.96924C12.5443 8.96924 11.3605 9.4568 10.3822 10.2989C9.40795 11.1374 8.69427 12.2786 8.56155 13.5225C8.53604 13.7615 8.34478 13.9485 8.10616 13.9676C5.88529 14.1461 4.08307 16.1198 4.08307 18.4692C4.08307 20.8061 6.06378 22.9692 8.56438 22.9692H19.5187C21.4346 22.9692 23.0042 21.3931 23.0042 19.4692C23.0042 18.4162 22.8361 17.8769 22.6113 17.5288C22.3957 17.195 22.1016 16.9844 21.6467 16.6652ZM9.46054 2.96924C5.89925 2.96924 2.98754 5.8931 2.98754 9.46924C2.98754 10.2935 2.9937 10.7974 3.00668 11.0972C3.01299 11.2428 3.02162 11.3612 3.03633 11.4499C3.04278 11.4887 3.05607 11.56 3.08885 11.6328C3.10582 11.6706 3.23295 11.9442 3.56015 11.9442C3.58052 11.9442 3.60008 11.943 3.61879 11.9409C3.71285 11.9742 3.81778 11.9796 3.92101 11.95C4.18542 11.8741 4.33853 11.5974 4.26298 11.3319C4.24623 11.273 4.22534 11.2112 4.1976 11.1527C4.17295 11.1007 4.12537 11.013 4.03824 10.938C4.02512 10.9268 4.01113 10.9158 3.99631 10.9054C3.98783 10.6154 3.98339 10.1631 3.98339 9.46924C3.98339 6.44538 6.44924 3.96924 9.46054 3.96924C11.1022 3.96924 12.5658 4.70172 13.5748 5.8071C13.7606 6.01066 14.0756 6.02441 14.2783 5.83782C14.481 5.65122 14.4947 5.33494 14.3089 5.13138C13.1271 3.83675 11.404 2.96924 9.46054 2.96924ZM3.17674 11.1389L3.1787 11.1359C3.17735 11.138 3.17672 11.139 3.17674 11.1389ZM4.01952 11.2902L4.01867 11.2857C4.01911 11.2884 4.0194 11.2898 4.0195 11.2901C4.01951 11.2902 4.01952 11.2902 4.01952 11.2902Z" fill="#6D9C4E"/>
</g>
<defs>
<clipPath id="clip0_669_9893">
<rect width="24" height="24" fill="white"/>
</clipPath>
</defs>
</svg>
