<svg width="75" height="75" viewBox="0 0 75 75" fill="none" xmlns="http://www.w3.org/2000/svg">
<path d="M28.8291 0C12.9072 0 0 12.9034 0 28.8206V46.1794C0 62.0966 12.9072 75 28.8291 75H35.8368V55.136L18.6502 37.9323C18.0071 37.2894 18.0071 36.2252 18.6502 35.5823C19.2933 34.9394 20.3578 34.9394 21.0009 35.5823L35.8368 50.436V31.9243L26.1901 22.2583C25.547 21.6154 25.547 20.5513 26.1901 19.9084C26.8332 19.2654 27.8977 19.2654 28.5408 19.9084L35.8368 27.2244V0H39.1632V24.0984H45.3282L49.3643 21.1499C49.0095 20.3296 48.8321 19.4206 48.8321 18.5117C48.8321 16.6938 49.5417 14.9645 50.8279 13.6787C53.4891 11.0183 57.8356 11.0183 60.4968 13.6787C63.1579 16.339 63.1579 20.6843 60.4968 23.3447C59.1662 24.6748 57.4143 25.3399 55.6623 25.3399C54.1322 25.3399 52.6242 24.8079 51.3823 23.7881L46.4148 27.4239H39.1632V42.7431H52.1807C52.4911 41.2799 53.2008 39.9054 54.3318 38.7526C57.3477 35.7375 62.6035 35.7375 65.6195 38.7526C67.1274 40.2601 67.948 42.2554 67.948 44.3837C67.948 46.512 67.1053 48.5294 65.6195 50.0148C64.1337 51.5001 62.0269 52.3426 59.9867 52.3426C57.9465 52.3426 55.9063 51.5667 54.3539 50.0148C53.2229 48.8841 52.5133 47.4874 52.2028 46.0464H39.1632V54.3822C39.1632 54.3822 39.1632 54.4044 39.1632 54.4265V74.9557H46.1709C62.0928 74.9557 75 62.0523 75 46.1351V28.8206C75 12.9034 62.0928 0 46.1709 0H28.8291Z" fill="#37523B"/>
<path d="M58.1461 20.9947C59.521 19.6202 59.521 17.4032 58.1461 16.0287C57.4586 15.3414 56.5716 15.0089 55.6623 15.0089C54.7531 15.0089 53.8661 15.3414 53.1786 16.0287C52.4911 16.7159 52.1585 17.5806 52.1585 18.5117C52.1585 19.4428 52.5355 20.3296 53.1786 20.9947C54.5535 22.3692 56.7711 22.3692 58.1461 20.9947Z" fill="#37523B"/>
<path d="M63.2688 47.7091C64.1558 46.8223 64.6437 45.6695 64.6437 44.428C64.6437 43.1865 64.1558 42.0115 63.2688 41.1469C62.3817 40.2823 61.2286 39.7724 59.9867 39.7724C58.7448 39.7724 57.5695 40.2601 56.7046 41.1469C54.8862 42.9648 54.8862 45.9134 56.7046 47.7313C58.5231 49.5492 61.4725 49.5492 63.291 47.7313L63.2688 47.7091Z" fill="#37523B"/>
<path d="M35.8368 55.136L18.6502 37.9323C18.0071 37.2894 18.0071 36.2252 18.6502 35.5823C19.2933 34.9394 20.3578 34.9394 21.0009 35.5823L35.8368 50.436V31.9243L26.1901 22.2583C25.547 21.6154 25.547 20.5513 26.1901 19.9084C26.8332 19.2654 27.8977 19.2654 28.5408 19.9084L35.8368 27.2244V7.44901L21.644 21.6376C12.8844 30.3946 12.8844 44.5832 21.644 53.3402L35.8368 67.5288V55.136Z" fill="#6D9C4E"/>
</svg>
