<svg width="25" height="24" viewBox="0 0 25 24" fill="none" xmlns="http://www.w3.org/2000/svg">
<g clip-path="url(#clip0_669_9336)">
<path fill-rule="evenodd" clip-rule="evenodd" d="M9.0866 3.12855C9.51834 1.64962 10.8417 0.5 12.5001 0.5C14.1269 0.5 15.5678 1.62161 15.931 3.13571C16.2675 3.2747 16.5939 3.43384 16.9086 3.61173C17.3559 2.94139 18.1178 2.5 18.9825 2.5C20.3595 2.5 21.4758 3.61929 21.4758 5C21.4758 5.87448 21.028 6.64409 20.3498 7.09089C21.0674 8.39034 21.4773 9.89203 21.4773 11.5V17C21.4773 18.4251 22.5512 19.5 23.9693 19.5C24.2454 19.5 24.4693 19.7239 24.4693 20C24.4693 20.2761 24.2454 20.5 23.9693 20.5H15.9587C15.7266 22.2265 14.3027 23.5 12.5 23.5C10.6972 23.5 9.27327 22.2265 9.04118 20.5H1.03094C0.754802 20.5 0.530945 20.2761 0.530945 20C0.530945 19.7239 0.754802 19.5 1.03094 19.5C2.44898 19.5 3.5229 18.4251 3.5229 17V11.5C3.5229 7.68251 5.83329 4.46409 9.0866 3.12855ZM16.5299 4.54754C16.5032 4.69429 16.4892 4.84551 16.4892 5C16.4892 6.38071 17.6055 7.5 18.9825 7.5C19.1289 7.5 19.2723 7.48735 19.4117 7.46309C20.0885 8.64407 20.4773 10.0207 20.4773 11.5V17C20.4773 17.9924 20.8609 18.8712 21.4929 19.5H15.4919H9.508H3.50731C4.13931 18.8712 4.5229 17.9924 4.5229 17V11.5C4.5229 8.01287 6.6833 5.09635 9.68413 3.96801C9.84357 3.90806 9.96152 3.77107 9.99712 3.6045C10.2525 2.40969 11.2651 1.5 12.5001 1.5C13.7617 1.5 14.8347 2.43104 14.9971 3.57052C15.0228 3.75134 15.1451 3.90373 15.3161 3.96801C15.7386 4.12687 16.1444 4.32118 16.5299 4.54754ZM12.5 22.5C13.7466 22.5 14.7273 21.6692 14.9462 20.5H10.0538C10.2726 21.6692 11.2533 22.5 12.5 22.5Z" fill="#37523B"/>
</g>
<defs>
<clipPath id="clip0_669_9336">
<rect width="23.9357" height="23" fill="white" transform="translate(0.532166 0.5)"/>
</clipPath>
</defs>
</svg>
