<svg width="25" height="24" viewBox="0 0 25 24" fill="none" xmlns="http://www.w3.org/2000/svg">
<g clip-path="url(#clip0_673_8183)">
<path fill-rule="evenodd" clip-rule="evenodd" d="M12.5322 0C10.8709 0 9.54391 1.19863 9.11087 2.74245C5.84942 4.1356 3.53217 7.49377 3.53217 11.4783V17.2174C3.53217 18.7032 2.45602 19.8261 1.03217 19.8261C0.756023 19.8261 0.532166 20.0597 0.532166 20.3478C0.532166 20.636 0.756023 20.8696 1.03217 20.8696H9.06541C9.29809 22.6721 10.7263 24 12.5322 24C14.3381 24 15.7662 22.6721 15.9989 20.8696H24.0322C24.3083 20.8696 24.5322 20.636 24.5322 20.3478C24.5322 20.0597 24.3083 19.8261 24.0322 19.8261C22.6083 19.8261 21.5322 18.7032 21.5322 17.2174V11.4783C21.5322 7.50088 19.2232 4.14759 15.9709 2.74993C15.6066 1.16937 14.1617 0 12.5322 0ZM14.9862 20.8696C14.7668 22.0888 13.7838 22.9565 12.5322 22.9565C11.2805 22.9565 10.2975 22.0888 10.0781 20.8696H14.9862ZM15.5322 19.8261H21.5501C20.9168 19.1702 20.5322 18.2533 20.5322 17.2174V11.4783C20.5322 7.84037 18.3664 4.79671 15.3566 3.61895C15.1855 3.552 15.063 3.39298 15.0372 3.20422C14.8745 2.01611 13.7989 1.04348 12.5322 1.04348C11.2922 1.04348 10.2769 1.99383 10.0211 3.23975C9.98536 3.41361 9.86727 3.55652 9.70773 3.61895C6.6979 4.79671 4.53217 7.84037 4.53217 11.4783V17.2174C4.53217 18.2533 4.14757 19.1702 3.51424 19.8261H9.53217H15.5322Z" fill="#37523B"/>
</g>
<defs>
<clipPath id="clip0_673_8183">
<rect width="24" height="24" fill="white" transform="translate(0.532166)"/>
</clipPath>
</defs>
</svg>
