<svg width="25" height="24" viewBox="0 0 25 24" fill="none" xmlns="http://www.w3.org/2000/svg">
<path fill-rule="evenodd" clip-rule="evenodd" d="M1.45026 2.5C1.45026 1.12386 2.46173 0 3.70026 0H19.0003C19.2488 0 19.4503 0.223858 19.4503 0.5C19.4503 0.776142 19.2488 1 19.0003 1H3.70026C2.95878 1 2.35026 1.67614 2.35026 2.5L2.35026 2.50045C2.35048 3.3241 2.95892 4 3.70026 4H19.0003C19.2488 4 19.4503 4.22386 19.4503 4.5V9C19.4503 9.27614 19.2488 9.5 19.0003 9.5C18.7517 9.5 18.5503 9.27614 18.5503 9V5H3.70026C3.19462 5 2.72683 4.81268 2.35026 4.49736V21.5C2.35026 22.3239 2.95878 23 3.70026 23H9.10026C9.34878 23 9.55026 23.2239 9.55026 23.5C9.55026 23.7761 9.34878 24 9.10026 24H3.70026C2.46173 24 1.45026 22.8761 1.45026 21.5V2.5ZM3.70031 2C3.45178 2 3.25031 2.22386 3.25031 2.5C3.25031 2.77614 3.45178 3 3.70031 3H18.1003C18.3488 3 18.5503 2.77614 18.5503 2.5C18.5503 2.22386 18.3488 2 18.1003 2H3.70031Z" fill="#37523B"/>
<path fill-rule="evenodd" clip-rule="evenodd" d="M7.9509 9.00737C8.08907 8.98251 8.23114 9.02126 8.3371 9.11272C9.3042 9.94738 10.3971 10.2716 11.5179 10.6041L11.5559 10.6154C12.6576 10.9423 13.8365 11.293 14.6791 12.2843C15.3011 12.9973 15.8644 13.9182 15.8074 14.8944C15.7559 15.7768 15.2136 16.5598 14.1113 17.1928C14.4377 17.7579 14.7171 18.3016 14.9549 18.8076C15.3434 19.6348 15.6218 20.3639 15.8129 20.9264C15.9643 20.6393 16.1485 20.3147 16.3655 19.9736C16.5384 19.7019 16.734 19.4168 16.9525 19.1303C16.2751 18.5649 15.9831 17.8982 16.0659 17.213C16.1571 16.4591 16.6883 15.8271 17.31 15.4158C17.3728 15.3742 17.4447 15.3487 17.5193 15.341C18.1871 14.9277 18.8562 14.7508 19.4799 14.5859L19.48 14.5859C19.539 14.5703 19.5977 14.5548 19.6559 14.5392C20.3706 14.3478 21.0678 14.1354 21.831 13.5883C21.944 13.5073 22.0879 13.4811 22.2225 13.5172C22.3571 13.5533 22.4682 13.6476 22.5248 13.7741C22.9459 14.7144 22.9826 15.9634 22.8019 17.0875C22.622 18.2064 22.2074 19.3199 21.6101 19.9666C21.6055 19.9715 21.6009 19.9763 21.5962 19.981C21.0457 20.5274 20.2404 21.0342 19.3831 21.0342C18.9408 21.0342 18.4995 20.8978 18.1034 20.5833C17.8864 20.411 17.6899 20.1909 17.5148 19.922C17.3839 20.1039 17.2616 20.2857 17.1481 20.4642C16.8133 20.9902 16.5619 21.4753 16.3946 21.8283C16.311 22.0045 16.2487 22.1472 16.2077 22.2447C16.1872 22.2935 16.172 22.3309 16.1622 22.3556L16.1515 22.3828L16.1492 22.3888L16.1488 22.3899L15.6827 22.3556L15.2636 22.3275L15.2632 22.3256L15.261 22.3162L15.2511 22.2747C15.242 22.2373 15.2276 22.1804 15.2076 22.1057C15.1675 21.9562 15.1046 21.7358 15.0145 21.4572C14.8344 20.9 14.5462 20.1116 14.116 19.1958C13.9185 18.7754 13.6914 18.3288 13.4315 17.8658C13.1551 18.3423 12.8427 18.705 12.4949 18.9575C12.003 19.3147 11.4674 19.4313 10.9378 19.3656C9.92326 19.2397 8.99227 18.4569 8.32409 17.6516C7.59187 16.7691 7.11405 15.2394 6.95973 13.696C6.80487 12.1471 6.96266 10.457 7.62651 9.24056C7.6934 9.11801 7.81272 9.03223 7.9509 9.00737ZM13.634 16.4063C12.7754 15.0587 11.651 13.6346 10.1941 12.3332C10.0041 12.1635 9.71146 12.1788 9.54048 12.3673C9.36951 12.5559 9.38491 12.8463 9.57488 13.016C10.9711 14.2632 12.0491 15.6322 12.8721 16.9293C12.5718 17.601 12.2497 17.9973 11.9484 18.2161C11.6535 18.4302 11.3561 18.4917 11.0526 18.454C10.4012 18.3732 9.66618 17.824 9.03856 17.0676C8.475 16.3884 8.02726 15.0703 7.88077 13.6052C7.7579 12.3764 7.85623 11.1337 8.21223 10.1818C9.20241 10.8768 10.2641 11.1913 11.2 11.4686L11.2908 11.4955C12.4326 11.8343 13.3351 12.1264 13.9733 12.8785L14.3273 12.5827L13.9775 12.8835C14.5579 13.5481 14.9189 14.2339 14.8834 14.8412C14.8557 15.3156 14.5724 15.8735 13.634 16.4063ZM15.2636 22.3275L16.1488 22.3899C16.0767 22.5803 15.8871 22.701 15.6827 22.6866C15.4783 22.6721 15.3078 22.526 15.2636 22.3275ZM18.1329 19.1453C18.3086 19.4926 18.4985 19.7206 18.6816 19.8659C18.9073 20.0452 19.1428 20.1155 19.3831 20.1155C19.8884 20.1155 20.468 19.7988 20.9344 19.3387C21.3525 18.8807 21.7216 17.9773 21.8879 16.9427C22.0173 16.138 22.0123 15.3254 21.8534 14.6684C21.1498 15.0746 20.4953 15.2659 19.897 15.4261L19.737 15.4687C19.0595 15.6489 18.49 15.8003 17.9159 16.1801C17.8563 16.2196 17.7885 16.2446 17.7179 16.2535C17.2911 16.5663 17.0291 16.9573 16.9849 17.3225C16.9484 17.6246 17.0504 18.0123 17.542 18.4228C18.13 17.7791 18.8396 17.179 19.6736 16.7651C19.9022 16.6516 20.1802 16.7436 20.2945 16.9705C20.4088 17.1974 20.3161 17.4733 20.0875 17.5867C19.3329 17.9612 18.6802 18.5264 18.1329 19.1453Z" fill="#37523B"/>
</svg>
