<svg width="32" height="33" viewBox="0 0 32 33" fill="none" xmlns="http://www.w3.org/2000/svg">
<g clip-path="url(#clip0_669_9382)">
<path fill-rule="evenodd" clip-rule="evenodd" d="M8.36845 1.11098C8.2635 1.02094 8.12279 0.98278 7.98595 1.00726C7.8491 1.03173 7.73092 1.11619 7.66469 1.23686C7.00721 2.43455 6.85094 4.09872 7.00431 5.62371C7.15714 7.1434 7.63037 8.64958 8.35556 9.51848C9.01731 10.3114 9.93936 11.0821 10.9442 11.2061C11.4686 11.2708 11.9991 11.156 12.4863 10.8043C12.8307 10.5557 13.1401 10.1986 13.4139 9.72941C13.6713 10.1853 13.8962 10.625 14.0918 11.0389C14.5179 11.9407 14.8034 12.7169 14.9818 13.2656C15.0709 13.5398 15.1332 13.7569 15.173 13.904C15.1928 13.9776 15.207 14.0336 15.2161 14.0705L15.2259 14.1113L15.228 14.1206L15.2285 14.1224C15.2418 14.182 15.2668 14.2368 15.3008 14.2846H8.94995C8.12152 14.2846 7.44995 14.9562 7.44995 15.7846V18.0513C7.44995 18.7958 7.99244 19.4137 8.70372 19.5312L10.697 26.9727C10.8727 27.6285 11.467 28.0846 12.1459 28.0846H13.6642C13.9404 28.0846 14.1642 27.8607 14.1642 27.5846C14.1642 27.3085 13.9404 27.0846 13.6642 27.0846H12.1459C11.9196 27.0846 11.7215 26.9326 11.6629 26.714L9.74436 19.5513H22.95C23.7784 19.5513 24.45 18.8797 24.45 18.0513V15.7846C24.45 14.9562 23.7784 14.2846 22.95 14.2846H16.0513C16.0731 14.2539 16.0913 14.2202 16.1051 14.1839L16.1055 14.1828L16.1078 14.1769L16.1184 14.1501C16.1281 14.1258 16.1431 14.089 16.1634 14.041C16.204 13.9449 16.2658 13.8045 16.3485 13.6309C16.5143 13.2834 16.7633 12.8057 17.0948 12.2878C17.2072 12.1121 17.3284 11.9331 17.458 11.7539C17.6314 12.0187 17.8261 12.2355 18.041 12.4051C18.4333 12.7147 18.8704 12.849 19.3084 12.849C20.1574 12.849 20.955 12.35 21.5002 11.812L21.5063 11.806L21.514 11.7978C22.1055 11.1611 22.5162 10.0647 22.6944 8.96307C22.8734 7.85622 22.837 6.62647 22.42 5.70066C22.3639 5.57613 22.2539 5.4832 22.1205 5.4477C21.9872 5.4122 21.8447 5.43792 21.7328 5.51771C20.9769 6.05636 20.2864 6.26551 19.5786 6.45396C19.521 6.46931 19.4629 6.48457 19.4044 6.49994L19.4043 6.49996L19.4043 6.49998C18.7865 6.66233 18.1239 6.83649 17.4625 7.24347C17.3886 7.25098 17.3174 7.27613 17.2552 7.31705C16.6395 7.72207 16.1134 8.34436 16.0231 9.08666C15.9411 9.76124 16.2302 10.4177 16.9011 10.9744C16.6847 11.2565 16.491 11.5372 16.3197 11.8048C16.1048 12.1406 15.9224 12.4602 15.7724 12.7429C15.5832 12.1891 15.3075 11.4711 14.9227 10.6567C14.6872 10.1584 14.4105 9.6232 14.0872 9.06672C15.1788 8.44351 15.7159 7.67249 15.767 6.80369C15.8234 5.84253 15.2656 4.93579 14.6495 4.23378C13.815 3.25769 12.6475 2.91242 11.5563 2.59053L11.5187 2.57944C10.4086 2.25203 9.32625 1.9328 8.36845 1.11098ZM16.1051 14.1839L15.2285 14.1224L15.6435 14.1501L16.1051 14.1839ZM10.2076 4.2819C11.6505 5.56329 12.7641 6.96546 13.6145 8.29229C14.5438 7.76778 14.8244 7.21847 14.8518 6.75134C14.887 6.15333 14.5295 5.47817 13.9547 4.82376L14.3011 4.52756L13.9505 4.81888C13.3184 4.07829 12.4245 3.79073 11.2937 3.45713L11.2038 3.43064L11.2038 3.43064C10.2769 3.15762 9.22544 2.84791 8.24477 2.16358C7.89219 3.1009 7.79481 4.32442 7.9165 5.53439C8.06158 6.97695 8.50502 8.27472 9.06317 8.94348C9.68475 9.68824 10.4127 10.229 11.0579 10.3086C11.3585 10.3456 11.653 10.2851 11.945 10.0743C12.2435 9.85888 12.5625 9.46866 12.8599 8.80729C12.0448 7.53017 10.9772 6.18223 9.59437 4.95421C9.40622 4.78712 9.39097 4.50116 9.56031 4.31551C9.72964 4.12986 10.0194 4.11481 10.2076 4.2819ZM18.6136 11.6988C18.4323 11.5556 18.2442 11.3312 18.0702 10.9892C18.6122 10.3798 19.2587 9.82333 20.006 9.45462C20.2324 9.34292 20.3242 9.07126 20.211 8.84786C20.0978 8.62446 19.8225 8.53391 19.596 8.64561C18.7701 9.05312 18.0674 9.64397 17.4849 10.2778C16.9981 9.87358 16.8971 9.49188 16.9333 9.19443C16.977 8.83484 17.2365 8.4499 17.6592 8.14194C17.7291 8.13312 17.7963 8.10849 17.8554 8.06964C18.4239 7.69563 18.9879 7.54656 19.6589 7.36922L19.8174 7.32723C20.4099 7.16947 21.0582 6.98115 21.755 6.58122C21.9123 7.22812 21.9173 8.02819 21.7891 8.82054C21.6244 9.83914 21.2589 10.7287 20.8448 11.1796C20.3829 11.6327 19.8089 11.9445 19.3084 11.9445C19.0704 11.9445 18.8372 11.8752 18.6136 11.6988ZM9.10421 18.5513C9.09684 18.5511 9.08945 18.5511 9.08203 18.5513H8.94995C8.67381 18.5513 8.44995 18.3274 8.44995 18.0513V15.7846C8.44995 15.5085 8.67381 15.2846 8.94995 15.2846H22.95C23.2261 15.2846 23.45 15.5085 23.45 15.7846V18.0513C23.45 18.3274 23.2261 18.5513 22.95 18.5513H9.10421ZM16.45 25.4185C16.45 23.6227 17.9261 22.1692 19.7499 22.1692C21.5738 22.1692 23.0499 23.6227 23.0499 25.4185C23.0499 27.2143 21.5738 28.6677 19.7499 28.6677C17.9261 28.6677 16.45 27.2143 16.45 25.4185ZM19.7499 21.1846C17.3738 21.1846 15.45 23.0789 15.45 25.4185C15.45 27.7581 17.3738 29.6523 19.7499 29.6523C20.7577 29.6523 21.6841 29.3116 22.4169 28.7406L25.5964 31.8712C25.7917 32.0634 26.1082 32.0634 26.3035 31.8712C26.4988 31.6789 26.4988 31.3672 26.3035 31.1749L23.124 28.0444C23.7039 27.3229 24.0499 26.4107 24.0499 25.4185C24.0499 23.0789 22.1261 21.1846 19.7499 21.1846Z" fill="#37523B"/>
</g>
<defs>
<clipPath id="clip0_669_9382">
<rect width="32" height="32.0154" fill="white"/>
</clipPath>
</defs>
</svg>
