<svg width="24" height="18" viewBox="0 0 24 18" fill="none" xmlns="http://www.w3.org/2000/svg">
<g clip-path="url(#clip0_669_9902)">
<path fill-rule="evenodd" clip-rule="evenodd" d="M7.64592 1.89736C8.87889 0.743939 10.4958 0 12 0C14.7763 0 17.0705 1.66523 18.0347 3.97581C20.5933 3.92366 22.448 6.40093 21.8823 8.87335C22.4107 9.2084 22.9195 9.57759 23.2993 10.1288C23.7649 10.8048 24 11.6925 24 13C24 15.7761 21.7761 18 19 18H6C2.72386 18 0 15.2761 0 12C0 8.8849 2.46264 6.26913 5.52112 6.01949C5.66405 4.39462 6.51829 2.95224 7.64592 1.89736ZM8.32908 2.62764C7.2417 3.64486 6.5 5.02031 6.5 6.5C6.5 6.77614 6.27614 7 6 7C3.27614 7 1 9.27614 1 12C1 14.7239 3.27614 17 6 17H19C21.2239 17 23 15.2239 23 13C23 11.8075 22.7851 11.1452 22.4757 10.6962C22.1569 10.2333 21.6992 9.93272 21.038 9.52583C20.8402 9.40411 20.7522 9.16222 20.8257 8.94189C21.5196 6.85991 19.8645 4.74384 17.7596 4.99644C17.5263 5.02444 17.3049 4.8862 17.2278 4.66426C16.4958 2.55985 14.4815 1 12 1C10.8042 1 9.42111 1.60606 8.32908 2.62764Z" fill="#6D9C4E"/>
</g>
<defs>
<clipPath id="clip0_669_9902">
<rect width="24" height="18" fill="white"/>
</clipPath>
</defs>
</svg>
