<svg width="24" height="24" viewBox="0 0 24 24" fill="none" xmlns="http://www.w3.org/2000/svg">
<g clip-path="url(#clip0_669_9881)">
<path fill-rule="evenodd" clip-rule="evenodd" d="M11.5 0.969238C11.7762 0.969238 12 1.1931 12 1.46924V3.46924C12 3.74538 11.7762 3.96924 11.5 3.96924C11.2239 3.96924 11 3.74538 11 3.46924V1.46924C11 1.1931 11.2239 0.969238 11.5 0.969238ZM4 12.4692C4 8.2931 7.32386 4.96924 11.5 4.96924C15.6761 4.96924 19 8.2931 19 12.4692C19 16.6454 15.6761 19.9692 11.5 19.9692C7.32386 19.9692 4 16.6454 4 12.4692ZM11.5 5.96924C7.87614 5.96924 5 8.84539 5 12.4692C5 16.0931 7.87614 18.9692 11.5 18.9692C15.1239 18.9692 18 16.0931 18 12.4692C18 8.84539 15.1239 5.96924 11.5 5.96924ZM11.5 20.9692C11.7761 20.9692 12 21.1931 12 21.4692V23.4692C12 23.7454 11.7761 23.9692 11.5 23.9692C11.2239 23.9692 11 23.7454 11 23.4692V21.4692C11 21.1931 11.2239 20.9692 11.5 20.9692ZM20.5 11.9692C20.2239 11.9692 20 12.1931 20 12.4692C20 12.7454 20.2239 12.9692 20.5 12.9692H22.5C22.7761 12.9692 23 12.7454 23 12.4692C23 12.1931 22.7761 11.9692 22.5 11.9692H20.5ZM0.5 11.9692C0.223858 11.9692 0 12.1931 0 12.4692C0 12.7454 0.223858 12.9692 0.5 12.9692H2.5C2.77614 12.9692 3 12.7454 3 12.4692C3 12.1931 2.77614 11.9692 2.5 11.9692H0.5ZM5.4535 18.5157C5.64877 18.7109 5.64877 19.0275 5.4535 19.2228L4.0535 20.6228C3.85824 20.818 3.54166 20.818 3.3464 20.6228C3.15114 20.4275 3.15114 20.1109 3.3464 19.9157L4.7464 18.5157C4.94166 18.3204 5.25824 18.3204 5.4535 18.5157ZM18.2535 18.5157C18.0582 18.3204 17.7416 18.3204 17.5463 18.5157C17.3511 18.7109 17.3511 19.0275 17.5463 19.2228L18.9463 20.6228C19.1416 20.818 19.4582 20.818 19.6535 20.6228C19.8487 20.4275 19.8487 20.1109 19.6535 19.9157L18.2535 18.5157ZM19.6535 4.31568C19.8487 4.51094 19.8487 4.82753 19.6535 5.02279L18.2535 6.42279C18.0582 6.61805 17.7416 6.61805 17.5463 6.42279C17.3511 6.22753 17.3511 5.91094 17.5463 5.71568L18.9463 4.31568C19.1416 4.12042 19.4582 4.12042 19.6535 4.31568ZM4.0535 4.31568C3.85824 4.12042 3.54166 4.12042 3.3464 4.31568C3.15114 4.51094 3.15114 4.82753 3.3464 5.02279L4.7464 6.42279C4.94166 6.61805 5.25824 6.61805 5.4535 6.42279C5.64877 6.22753 5.64877 5.91094 5.4535 5.71568L4.0535 4.31568Z" fill="#6D9C4E"/>
</g>
<defs>
<clipPath id="clip0_669_9881">
<rect width="24" height="24" fill="white"/>
</clipPath>
</defs>
</svg>
