<svg width="23" height="23" viewBox="0 0 23 23" fill="none" xmlns="http://www.w3.org/2000/svg">
<g clip-path="url(#clip0_669_9905)">
<path fill-rule="evenodd" clip-rule="evenodd" d="M1 0.469238C1 0.193096 0.776142 -0.0307617 0.5 -0.0307617C0.223858 -0.0307617 0 0.193096 0 0.469238V6.21924C0 8.45831 1.7728 10.2852 4 10.5257V13.435C2.87427 13.6588 2 14.6223 2 15.8026V20.5942C2 21.9444 3.14413 23.0109 4.5 23.0109C5.85587 23.0109 7 21.9444 7 20.5942V15.8026C7 14.6223 6.12573 13.6588 5 13.435V10.5257C7.2272 10.2852 9 8.45831 9 6.21924V0.469238C9 0.193096 8.77614 -0.0307617 8.5 -0.0307617C8.22386 -0.0307617 8 0.193096 8 0.469238V6.21924C8 7.87321 6.70417 9.28452 5 9.51855V0.469238C5 0.193096 4.77614 -0.0307617 4.5 -0.0307617C4.22386 -0.0307617 4 0.193096 4 0.469238V9.51855C2.29583 9.28452 1 7.87321 1 6.21924V0.469238ZM3 15.8026C3 15.0452 3.6544 14.3874 4.49715 14.3859L4.5 14.3859C5.34413 14.3859 6 15.0444 6 15.8026V20.5942C6 21.3524 5.34413 22.0109 4.5 22.0109C3.65587 22.0109 3 21.3524 3 20.5942V15.8026ZM16 15.8026C16 15.0444 16.6559 14.3859 17.5 14.3859C18.3441 14.3859 19 15.0444 19 15.8026V20.5942C19 21.3524 18.3441 22.0109 17.5 22.0109C16.6559 22.0109 16 21.3524 16 20.5942V15.8026ZM15 15.8026C15 14.6223 15.8743 13.6588 17 13.435V12.4692H12.5C12.3628 12.4692 12.2317 12.4129 12.1373 12.3135C12.0429 12.214 11.9935 12.0792 12.0007 11.9423C12.0007 11.9425 12.0006 11.9432 12.5 11.9692L12.0007 11.9423L12.0008 11.9403L12.0012 11.9333L12.0027 11.9071C12.004 11.8843 12.006 11.8509 12.0088 11.8077C12.0144 11.7212 12.0232 11.5953 12.0359 11.4355C12.0613 11.116 12.1025 10.6607 12.1658 10.1148C12.2922 9.02471 12.5076 7.56532 12.8641 6.10095C13.2189 4.64409 13.7217 3.14597 14.4387 2.00078C15.1526 0.860411 16.1479 -0.0307617 17.5 -0.0307617C18.8521 -0.0307617 19.8473 0.860411 20.5612 2.00078C21.2782 3.14597 21.781 4.64409 22.1358 6.10095C22.4923 7.56532 22.7077 9.02471 22.8341 10.1148C22.8974 10.6607 22.9386 11.116 22.964 11.4355C22.9767 11.5953 22.9855 11.7212 22.9911 11.8077C22.9939 11.8509 22.9959 11.8843 22.9972 11.9071L22.9987 11.9333L22.9991 11.9403L22.9993 11.9429L22.5 11.9692C22.9993 11.9432 22.9993 11.943 22.9993 11.9429C23.0064 12.0798 22.957 12.214 22.8626 12.3135C22.7682 12.4129 22.6371 12.4692 22.5 12.4692H18V13.435C19.1257 13.6588 20 14.6223 20 15.8026V20.5942C20 21.9444 18.8559 23.0109 17.5 23.0109C16.1441 23.0109 15 21.9444 15 20.5942V15.8026ZM18 11.4692H21.9635C21.9387 11.1626 21.8995 10.7366 21.8408 10.2299C21.7172 9.16376 21.5076 7.74816 21.1641 6.33752C20.8189 4.91939 20.3467 3.54251 19.7137 2.53144C19.0776 1.51557 18.3479 0.969238 17.5 0.969238C16.6521 0.969238 15.9223 1.51557 15.2862 2.53144C14.6532 3.54251 14.181 4.91939 13.8358 6.33752C13.4923 7.74816 13.2827 9.16376 13.1591 10.2299C13.1004 10.7366 13.0613 11.1626 13.0364 11.4692H17V5.26089C17 4.98475 17.2239 4.76089 17.5 4.76089C17.7761 4.76089 18 4.98475 18 5.26089V11.4692Z" fill="#6D9C4E"/>
</g>
<defs>
<clipPath id="clip0_669_9905">
<rect width="23" height="23" fill="white"/>
</clipPath>
</defs>
</svg>
