<svg width="24" height="25" viewBox="0 0 24 25" fill="none" xmlns="http://www.w3.org/2000/svg">
<path fill-rule="evenodd" clip-rule="evenodd" d="M10 3.46924C10 2.0931 11.1239 0.969238 12.5 0.969238C13.8761 0.969238 15 2.0931 15 3.46924V16.6845C15.5124 16.9953 16.0013 17.3453 16.3629 17.8748C16.7895 18.4995 17 19.3109 17 20.4692C17 22.9454 14.9761 24.9692 12.5 24.9692C10.0239 24.9692 8 22.9454 8 20.4692C8 18.8917 8.78987 17.5083 10 16.693V3.46924ZM12.5 1.96924C11.6761 1.96924 11 2.64538 11 3.46924V16.9692C11 17.1471 10.9055 17.3115 10.7519 17.4011C9.70106 18.0141 9 19.1522 9 20.4692C9 22.3931 10.5761 23.9692 12.5 23.9692C14.4239 23.9692 16 22.3931 16 20.4692C16 19.4276 15.8105 18.839 15.5371 18.4387C15.2567 18.0282 14.8477 17.7509 14.2481 17.4011C14.0945 17.3115 14 17.1471 14 16.9692V3.46924C14 2.64538 13.3239 1.96924 12.5 1.96924ZM12.5 19.9692C12.2239 19.9692 12 20.1931 12 20.4692C12 20.7454 12.2239 20.9692 12.5 20.9692C12.7762 20.9692 13 20.7454 13 20.4692C13 20.1931 12.7762 19.9692 12.5 19.9692ZM12.9999 19.0546V8.46924C12.9999 8.1931 12.7761 7.96924 12.4999 7.96924C12.2238 7.96924 11.9999 8.1931 11.9999 8.46924V19.0546C11.4174 19.2606 11 19.8162 11 20.4692C11 21.2977 11.6716 21.9692 12.5 21.9692C13.3285 21.9692 14 21.2977 14 20.4692C14 19.8161 13.5826 19.2604 12.9999 19.0546Z" fill="#6D9C4E"/>
</svg>
