<svg width="24" height="24" viewBox="0 0 24 24" fill="none" xmlns="http://www.w3.org/2000/svg">
<g clip-path="url(#clip0_669_9915)">
<path fill-rule="evenodd" clip-rule="evenodd" d="M21.0996 3.549C21.0996 2.69351 20.2982 2 19.3096 2H4.98926C4.00065 2 3.19922 2.69351 3.19922 3.549V3.54967V5.95855V5.95923C3.19922 6.66758 3.74868 7.26488 4.4989 7.44939L6.58111 15.2573C6.76854 15.9601 7.49177 16.458 8.32531 16.458H15.5464C15.5567 16.458 15.567 16.4578 15.5772 16.4573H15.9735C16.8071 16.4573 17.5303 15.9595 17.7177 15.2566L19.7997 7.44943C20.5501 7.26498 21.0996 6.66764 21.0996 5.95923V5.95855V3.54967V3.549ZM5.73931 7.50823H18.5593L16.5549 15.0244C16.4924 15.2587 16.2514 15.4247 15.9735 15.4247H14.5361C14.5258 15.4247 14.5156 15.4249 14.5054 15.4253H8.32531C8.04746 15.4253 7.80639 15.2594 7.74391 15.0251L5.73931 7.50823ZM19.2965 6.47489H4.98926C4.65972 6.47489 4.39258 6.24372 4.39258 5.95855L4.39258 3.54967L4.39258 3.54934C4.39278 3.26433 4.65985 3.03334 4.98926 3.03334H19.3096C19.6391 3.03334 19.9062 3.26451 19.9062 3.54967V5.95855C19.9062 6.24122 19.6438 6.47084 19.3182 6.47483L19.2965 6.47489ZM3.92308 18.5714C3.92308 18.2558 3.71644 18 3.46154 18C3.20664 18 3 18.2558 3 18.5714V21.4286C3 21.7442 3.20664 22 3.46154 22C3.71644 22 3.92308 21.7442 3.92308 21.4286V20.5714H20.0769V21.4286C20.0769 21.7442 20.2836 22 20.5385 22C20.7934 22 21 21.7442 21 21.4286V18.5714C21 18.2558 20.7934 18 20.5385 18C20.2836 18 20.0769 18.2558 20.0769 18.5714V19.4286H3.92308V18.5714Z" fill="#6D9C4E"/>
</g>
<defs>
<clipPath id="clip0_669_9915">
<rect width="24" height="24" fill="white"/>
</clipPath>
</defs>
</svg>
