<svg width="25" height="25" viewBox="0 0 25 25" fill="none" xmlns="http://www.w3.org/2000/svg">
<g clip-path="url(#clip0_669_9994)">
<path fill-rule="evenodd" clip-rule="evenodd" d="M1.47923 1C1.21459 1 1.00006 1.21453 1.00006 1.47917V2.4375C1.00006 2.70213 1.21459 2.91666 1.47923 2.91666C1.74386 2.91666 1.95839 2.70213 1.95839 2.4375V1.95833H2.43756C2.70219 1.95833 2.91672 1.7438 2.91672 1.47917C2.91672 1.21453 2.70219 1 2.43756 1H1.47923ZM1.95839 4.35416C1.95839 4.08952 1.74386 3.87499 1.47923 3.87499C1.21459 3.87499 1.00006 4.08952 1.00006 4.35416V6.27082C1.00006 6.53546 1.21459 6.74999 1.47923 6.74999C1.74386 6.74999 1.95839 6.53546 1.95839 6.27082V4.35416ZM16.8125 13.4583C14.9601 13.4583 13.4584 14.96 13.4584 16.8125C13.4584 18.6649 14.9601 20.1666 16.8125 20.1666C17.675 20.1666 18.4614 19.8411 19.0557 19.3062C19.079 19.252 19.1128 19.2012 19.1571 19.157C19.2013 19.1127 19.2521 19.0789 19.3063 19.0556C19.8412 18.4613 20.1667 17.6749 20.1667 16.8125C20.1667 14.96 18.665 13.4583 16.8125 13.4583ZM16.8125 21.125C17.8308 21.125 18.7666 20.7721 19.5044 20.1819L23.1821 23.8596C23.3692 24.0467 23.6726 24.0467 23.8597 23.8596C24.0468 23.6725 24.0468 23.3691 23.8597 23.182L20.182 19.5042C20.7721 18.7665 21.125 17.8307 21.125 16.8125C21.125 14.4307 19.1943 12.5 16.8125 12.5C14.4308 12.5 12.5 14.4307 12.5 16.8125C12.5 19.1942 14.4308 21.125 16.8125 21.125ZM14.8959 16.3333C14.6312 16.3333 14.4167 16.5478 14.4167 16.8125C14.4167 17.0771 14.6312 17.2916 14.8959 17.2916H16.3334V18.7291C16.3334 18.9938 16.5479 19.2083 16.8125 19.2083C17.0772 19.2083 17.2917 18.9938 17.2917 18.7291V17.2916H18.7292C18.9938 17.2916 19.2084 17.0771 19.2084 16.8125C19.2084 16.5478 18.9938 16.3333 18.7292 16.3333H17.2917V14.8958C17.2917 14.6312 17.0772 14.4166 16.8125 14.4166C16.5479 14.4166 16.3334 14.6312 16.3334 14.8958V16.3333H14.8959ZM1.47923 7.70832C1.74386 7.70832 1.95839 7.92285 1.95839 8.18749V10.1041C1.95839 10.3688 1.74386 10.5833 1.47923 10.5833C1.21459 10.5833 1.00006 10.3688 1.00006 10.1041V8.18749C1.00006 7.92285 1.21459 7.70832 1.47923 7.70832ZM1.95839 12.0208C1.95839 11.7562 1.74386 11.5416 1.47923 11.5416C1.21459 11.5416 1.00006 11.7562 1.00006 12.0208V13.9375C1.00006 14.2021 1.21459 14.4166 1.47923 14.4166C1.74386 14.4166 1.95839 14.2021 1.95839 13.9375V12.0208ZM16.8125 3.87499C17.0772 3.87499 17.2917 4.08952 17.2917 4.35416V6.27082C17.2917 6.53546 17.0772 6.74999 16.8125 6.74999C16.5479 6.74999 16.3334 6.53546 16.3334 6.27082V4.35416C16.3334 4.08952 16.5479 3.87499 16.8125 3.87499ZM17.2917 8.18749C17.2917 7.92285 17.0772 7.70832 16.8125 7.70832C16.5479 7.70832 16.3334 7.92285 16.3334 8.18749V10.1041C16.3334 10.3688 16.5479 10.5833 16.8125 10.5833C17.0772 10.5833 17.2917 10.3688 17.2917 10.1041V8.18749ZM1.47923 15.375C1.74386 15.375 1.95839 15.5895 1.95839 15.8541V16.3333H2.43756C2.70219 16.3333 2.91672 16.5478 2.91672 16.8125C2.91672 17.0771 2.70219 17.2916 2.43756 17.2916H1.47923C1.21459 17.2916 1.00006 17.0771 1.00006 16.8125V15.8541C1.00006 15.5895 1.21459 15.375 1.47923 15.375ZM3.87506 1.47917C3.87506 1.21453 4.08958 1 4.35422 1H6.27088C6.53552 1 6.75005 1.21453 6.75005 1.47917C6.75005 1.7438 6.53552 1.95833 6.27088 1.95833H4.35422C4.08958 1.95833 3.87506 1.7438 3.87506 1.47917ZM8.18755 1C7.92291 1 7.70838 1.21453 7.70838 1.47917C7.70838 1.7438 7.92291 1.95833 8.18755 1.95833H10.1042C10.3688 1.95833 10.5834 1.7438 10.5834 1.47917C10.5834 1.21453 10.3688 1 10.1042 1H8.18755ZM3.87506 16.8125C3.87506 16.5478 4.08958 16.3333 4.35422 16.3333H6.27088C6.53552 16.3333 6.75005 16.5478 6.75005 16.8125C6.75005 17.0771 6.53552 17.2916 6.27088 17.2916H4.35422C4.08958 17.2916 3.87506 17.0771 3.87506 16.8125ZM8.18755 16.3333C7.92291 16.3333 7.70838 16.5478 7.70838 16.8125C7.70838 17.0771 7.92291 17.2916 8.18755 17.2916H10.1042C10.3688 17.2916 10.5834 17.0771 10.5834 16.8125C10.5834 16.5478 10.3688 16.3333 10.1042 16.3333H8.18755ZM11.5417 1.47917C11.5417 1.21453 11.7562 1 12.0209 1H13.9375C14.2022 1 14.4167 1.21453 14.4167 1.47917C14.4167 1.7438 14.2022 1.95833 13.9375 1.95833H12.0209C11.7562 1.95833 11.5417 1.7438 11.5417 1.47917ZM15.8542 1C15.5896 1 15.375 1.21453 15.375 1.47917C15.375 1.7438 15.5896 1.95833 15.8542 1.95833H16.3334V2.4375C16.3334 2.70213 16.5479 2.91666 16.8125 2.91666C17.0772 2.91666 17.2917 2.70213 17.2917 2.4375V1.47917C17.2917 1.21453 17.0772 1 16.8125 1H15.8542Z" fill="white"/>
</g>
<defs>
<clipPath id="clip0_669_9994">
<rect width="24" height="24" fill="white" transform="translate(0.467834 0.0153809)"/>
</clipPath>
</defs>
</svg>
