<svg width="24" height="24" viewBox="0 0 24 24" fill="none" xmlns="http://www.w3.org/2000/svg">
<g clip-path="url(#clip0_669_9876)">
<path fill-rule="evenodd" clip-rule="evenodd" d="M12.1875 3C12.0032 3 11.8306 3.09028 11.7255 3.24165L11.7209 3.2482L11.7084 3.26634L11.6604 3.33618C11.6185 3.39725 11.5574 3.48685 11.4797 3.60178C11.3244 3.83161 11.103 4.16289 10.8374 4.57007C10.3067 5.38394 9.59809 6.50339 8.88871 7.72353C8.18041 8.94181 7.46564 10.2701 6.92628 11.4998C6.39672 12.7072 6 13.898 6 14.8125C6 18.2732 8.72684 21 12.1875 21C15.6482 21 18.375 18.2732 18.375 14.8125C18.375 13.898 17.9783 12.7072 17.4487 11.4998C16.9094 10.2701 16.1946 8.94181 15.4863 7.72353C14.7769 6.50339 14.0683 5.38394 13.5376 4.57007C13.272 4.16289 13.0506 3.83161 12.8953 3.60178C12.8176 3.48685 12.7565 3.39725 12.7146 3.33618L12.6666 3.26634L12.6541 3.2482L12.6495 3.24165C12.5444 3.09028 12.3718 3 12.1875 3ZM11.7797 5.18462C11.9319 4.95135 12.0692 4.7435 12.1875 4.56605C12.3058 4.7435 12.4431 4.95135 12.5953 5.18462C13.1192 5.98794 13.8168 7.09035 14.5137 8.28897C15.2117 9.48943 15.9031 10.7768 16.4185 11.9517C16.9436 13.149 17.25 14.152 17.25 14.8125C17.25 17.6518 15.0268 19.875 12.1875 19.875C9.34816 19.875 7.125 17.6518 7.125 14.8125C7.125 14.152 7.4314 13.149 7.95654 11.9517C8.47186 10.7768 9.16334 9.48943 9.86129 8.28897C10.5582 7.09035 11.2558 5.98794 11.7797 5.18462ZM9.9607 15.4889C9.9607 15.2189 9.74564 15 9.48035 15C9.21506 15 9 15.2189 9 15.4889C9 17.03 10.1758 18.2267 11.69 18.2267C11.9552 18.2267 12.1703 18.0078 12.1703 17.7378C12.1703 17.4678 11.9552 17.2489 11.69 17.2489C10.7063 17.2489 9.9607 16.49 9.9607 15.4889Z" fill="white"/>
</g>
<defs>
<clipPath id="clip0_669_9876">
<rect width="24" height="24" fill="white"/>
</clipPath>
</defs>
</svg>
